<?xml version="1.0" encoding="UTF-8" standalone="no"?><!DOCTYPE svg PUBLIC "-//W3C//DTD SVG 1.1//EN" "http://www.w3.org/Graphics/SVG/1.1/DTD/svg11.dtd"><svg width="100%" height="100%" viewBox="0 0 2500 2492" version="1.1" xmlns="http://www.w3.org/2000/svg" xmlns:xlink="http://www.w3.org/1999/xlink" xml:space="preserve" xmlns:serif="http://www.serif.com/" style="fill-rule:evenodd;clip-rule:evenodd;stroke-linejoin:round;stroke-miterlimit:2;"><rect id="Artboard5" x="0" y="0" width="2500" height="2491.667" style="fill:none;"/><clipPath id="_clip1"><rect x="0" y="0" width="2500" height="2491.667"/></clipPath><g clip-path="url(#_clip1)"><g><path d="M1124.94,2516.243c-1038.726,-0.015 -1038.636,1.163 -1128.951,0.66c-32.492,-0.181 -25.369,-13.02 -25.367,-43.689c0.138,-2323.455 -1.53,-2323.405 -0.714,-2457.274c0.186,-30.53 13.895,-23.793 46.548,-23.805c201.168,-0.073 2473.763,-0.904 2514.604,-0.669c6.667,0.038 13.429,-0.886 20,0.173c1.649,0.266 12.323,1.986 15.091,13.603c1.285,5.392 1.478,2494.702 1.02,2496.387c-4.281,15.747 -8.335,14.37 -25.718,14.608c-51.3,0.703 -1274.867,0.673 -1385.725,0.671c-15.426,-0 -15.215,-0.329 -30.789,-0.665Z" style="fill:#f0eee9;"/><path d="M1261.587,1161.963c1.517,-10.234 1.362,-10.215 1.638,-11.052c4.388,-13.297 15.228,-7.353 74.098,1.525c6.445,0.972 56.457,8.514 80.51,12.656c32.266,5.557 43.496,0.327 42.856,25.78c-1.221,48.598 -6.975,97.916 -8.08,108.984c-2.2,22.04 -11.981,20.103 -31.766,18.506c-6.674,-0.539 -71.394,-5.765 -83.412,-7.023c-47.456,-4.968 -75.183,-5.415 -79.985,-8.631c-13.143,-8.8 -0.261,-18.566 4.14,-140.746Z" style="fill:#2c3930;"/><path d="M1227.339,1419.755c7.923,-32.882 10.769,-50.076 10.995,-51.204c5.829,-29.062 4.737,-39.153 22.021,-37.884c21.27,1.561 93.833,7.384 95.74,7.488c24.77,1.352 56.799,3.881 61.735,4.271c18.432,1.455 28.515,0.297 25.623,22.809c-0.948,7.384 -2.551,19.858 -19.005,90.638c-6.503,27.975 -8.319,31.611 -28.272,31.522c-163.751,-0.73 -163.743,-0.903 -166.809,-0.993c-17.264,-0.503 -17.92,-7.848 -12.084,-26.953c4.562,-14.933 9.171,-35.909 10.056,-39.693Z" style="fill:#2c3930;"/><path d="M1272.866,957.276c66.436,16.164 66.27,16.774 132.777,32.807c39.854,9.608 44.326,8.904 47.309,22.687c2.595,11.989 10.093,115.394 7.315,123.399c-4.098,11.811 -10.632,8.652 -36.403,4.72c-13.422,-2.048 -113.961,-18.901 -132.798,-21.635c-18.85,-2.736 -27.897,-3.268 -28.442,-22.685c-1.221,-43.54 -0.542,-43.533 -3.855,-86.915c-2.422,-31.712 -8.229,-48.826 1.804,-53.407c2.117,-0.966 11.32,0.838 12.293,1.029Z" style="fill:#2c3930;"/><path d="M1179.917,1650.163c-20.701,1.142 -28.443,2.562 -29.694,-2.646c-1.663,-6.922 10.578,-20.633 38.528,-97.717c8.834,-24.366 7.917,-38.006 25.235,-38.707c5.489,-0.222 133.516,-0.711 145.126,-0.755c34.661,-0.132 43.198,-0.657 45.452,7.449c2.386,8.579 -6.247,26.006 -15.027,50.15c-1.519,4.176 -1.936,3.866 -21.095,51.073c-8.884,21.891 -18.382,17.774 -46.48,20.244c-11.356,0.998 -11.336,0.488 -142.045,10.909Z" style="fill:#2c3930;"/><path d="M1227.687,809.508c-3.885,-15.613 -8.182,-28.882 5.002,-26.401c1.059,0.199 86.456,27.857 176.231,57.775c13.318,4.438 14.703,7.55 20.669,34.558c18.609,84.254 16.635,89.379 14.831,93.342c-3.352,7.366 -10.479,5.86 -29.691,0.665c-5.04,-1.363 -151.534,-38.222 -154.592,-39.219c-19.532,-6.365 -7.332,-18.371 -32.449,-120.72Z" style="fill:#2c3930;"/><path d="M1115.036,1294.031c40.287,9.708 39.984,11.044 80.07,21.932c21.31,5.788 29.77,6.521 26.732,26.979c-3.069,20.665 -24.078,116.836 -29.58,123.586c-7.958,9.763 -13.406,0.307 -71.158,-39.442c-35.934,-24.732 -39.644,-26.391 -37.775,-40.503c2.406,-18.166 6.48,-16.976 17.23,-75.736c3.109,-16.996 7.624,-15.66 14.479,-16.816Z" style="fill:#2c3930;"/><path d="M1130.766,1152.612c43.541,-5.327 65.269,-7.089 70.956,-7.55c23.055,-1.87 34.822,-6.767 38.74,6.345c2.234,7.475 -2.404,68.647 -5.365,93.822c-4.396,37.376 -1.203,52.857 -17.953,50.145c-4.807,-0.778 -68.348,-19.06 -74.281,-20.767c-17.424,-5.013 -25.009,-5.545 -30.236,-11.807c-5.872,-7.035 -1.871,-8.706 3.671,-82.697c1.665,-22.235 3.202,-23.699 14.469,-27.49Z" style="fill:#2c3930;"/><path d="M1105.68,1445.212c35.819,24.32 65.581,45.525 67.728,47.43c12.626,11.202 3.685,24.429 -9.076,60.92c-2.483,7.101 -28.17,73.077 -33.681,76.446c-8.578,5.244 -13.443,-4.592 -26.018,-20.598c-18.699,-23.8 -60.178,-74.214 -63.438,-81.277c-4.869,-10.549 -1.577,-11.417 14.569,-54.626c11.012,-29.47 12.896,-40.583 19.235,-43.124c4.803,-1.926 6.913,-2.317 30.682,14.829Z" style="fill:#2c3930;"/><path d="M1222.936,964.392c1.115,0.107 2.207,-0.655 3.322,-0.549c0.659,0.063 5.021,0.48 6.923,5.298c3.304,8.371 8.279,84.889 8.569,123.794c0.19,25.42 -9.685,23.205 -27.829,24.793c-51.079,4.469 -51.037,4.945 -55.481,5.292c-26.71,2.089 -33.175,5.058 -38.383,-3.815c-2.147,-3.658 -1.735,-4.045 -3.6,-55.375c-1.169,-32.173 -5.319,-43.823 4.644,-51.062c3.205,-2.328 6.252,-4.542 43.576,-21.013c16.007,-7.064 47.342,-23.244 58.258,-27.363Z" style="fill:#2c3930;"/><path d="M1205.926,805.922c8.857,35.792 24.065,113.432 21.054,124.043c-2.766,9.749 -21.13,14.084 -65.68,35.557c-39.826,19.196 -48.265,23.249 -52.357,11.325c-1.921,-5.597 -3.364,-27.442 -9.532,-57.974c-5.497,-27.212 -8.188,-33.877 3.251,-43.76c1.844,-1.594 29.839,-27.432 63.956,-55.807c4.857,-4.04 12.747,-11.22 13.842,-12.216c7.803,-7.101 17.938,-18.281 23.48,-7.503c0,0 1.827,5.828 1.985,6.335Z" style="fill:#2c3930;"/></g></g></svg>