<?xml version="1.0" encoding="UTF-8" standalone="no"?><!DOCTYPE svg PUBLIC "-//W3C//DTD SVG 1.1//EN" "http://www.w3.org/Graphics/SVG/1.1/DTD/svg11.dtd"><svg width="100%" height="100%" viewBox="0 0 2500 2492" version="1.1" xmlns="http://www.w3.org/2000/svg" xmlns:xlink="http://www.w3.org/1999/xlink" xml:space="preserve" xmlns:serif="http://www.serif.com/" style="fill-rule:evenodd;clip-rule:evenodd;stroke-linejoin:round;stroke-miterlimit:2;"><rect id="Mastering" x="0" y="0" width="2500" height="2491.667" style="fill:none;"/><clipPath id="_clip1"><rect x="0" y="0" width="2500" height="2491.667"/></clipPath><g clip-path="url(#_clip1)"><g><path d="M-74.849,3256.968c-44.726,1.74 -253.774,0.71 -253.915,0.67c-18.886,-5.376 -17.259,-10.431 -17.552,-32.214c-0.053,-3.947 -1.542,-3313.077 -0.596,-3317.191c4.829,-20.993 9.382,-19.177 28.977,-19.504c78.821,-1.316 2190.384,-0.8 2603.056,-0.91c23.296,-0.006 263.733,0.012 266.011,0.034c36.734,0.343 28.58,17.583 28.594,58.3c0.264,1088.752 0.529,2177.504 0.793,3266.256c0,2.005 0,24.201 -0.196,25.056c-4.834,21.003 -9.396,19.173 -28.991,19.496c-105.682,1.74 -2384.166,0.971 -2591.485,0.901c-17.553,-0.006 -17.316,-0.446 -34.697,-0.894Z" style="fill:#e6e3d9;"/><path d="M870.522,1354.437c0.386,-370.779 -0.435,-502.904 0.291,-505.378c1.458,-4.971 9.8,-3.766 36.264,-3.713c337.771,0.666 337.694,-0.735 675.404,-0.092c42.336,0.081 42.996,-0.444 45.492,2.443c1.726,1.996 1.331,6.184 1.328,7.824c-0.13,68.926 -0.198,715.372 -0.016,773.838c0.037,12.089 2.636,17.198 -9.47,17.217c-113.133,-0.018 -226.266,-0.037 -339.399,-0.055c-32.312,0.013 -402.254,0.162 -403.899,-0.044c-0.548,-0.069 -4.774,-0.598 -5.716,-3.872c-0.14,-0.487 -0.484,-0.503 -0.278,-288.169Z" style="fill:#2c535a;"/><path d="M1177.157,1411.913c-3.019,18.648 -17.132,100.696 -29.953,121.916c-12.163,20.13 -21.008,-1.825 -21.664,-3.453c-14.783,-36.691 -23.959,-137.524 -29.142,-186.042c-7.187,-67.28 -22.958,-293.713 -37.018,-359.748c-3.893,-18.287 -9.996,-51.208 -23.43,-47.925c-23.461,5.734 -50.677,194.535 -65.938,254.476c-0.93,3.655 -13.66,57.802 -33.578,108.507c-5.566,14.168 -15.273,34.596 -23.217,47.6c-1.262,2.066 -1.237,1.997 -2.292,4.2c-2.897,6.054 -7.808,6.391 -7.671,-0.311c0.132,-6.442 0.666,-6.393 0.584,-17.055c-0.221,-28.615 0.474,-222.998 -0.111,-431.035c-0.044,-15.628 -0.25,-19.613 1.695,-21.786c3.241,-3.622 4.306,-2.274 137.411,-2.507c181.012,-0.036 362.024,-0.072 543.036,-0.108c10.655,-0 9.998,3.577 10.013,14.217c0.04,28.506 0.497,351.177 -0.228,356.322c-0.759,5.378 -5.779,5.6 -6.464,5.63c-1.538,0.068 -297.557,0.108 -298.558,0.074c-7.314,-0.253 -9.625,-2.87 -19.212,-33.177c-11.057,-34.956 -22.904,-86.161 -41.442,-76.865c-19.9,9.979 -30.153,126.133 -45.189,216.293c-1.859,11.144 -7.04,46.712 -7.632,50.777Z" style="fill:#e6e3d8;"/></g></g></svg>