<?xml version="1.0" encoding="UTF-8" standalone="no"?><!DOCTYPE svg PUBLIC "-//W3C//DTD SVG 1.1//EN" "http://www.w3.org/Graphics/SVG/1.1/DTD/svg11.dtd"><svg width="100%" height="100%" viewBox="0 0 2500 2492" version="1.1" xmlns="http://www.w3.org/2000/svg" xmlns:xlink="http://www.w3.org/1999/xlink" xml:space="preserve" xmlns:serif="http://www.serif.com/" style="fill-rule:evenodd;clip-rule:evenodd;stroke-linejoin:round;stroke-miterlimit:2;"><rect id="Mixing" x="0" y="0" width="2500" height="2491.667" style="fill:none;"/><clipPath id="_clip1"><rect x="0" y="0" width="2500" height="2491.667"/></clipPath><g clip-path="url(#_clip1)"><g><path d="M1744.793,2496.128c-567.338,-0.221 -1134.675,-0.441 -1702.013,-0.662c-31.49,-0.003 -44.687,6.636 -44.869,-23.579c-1.179,-195.405 0.264,-195.299 0.679,-2442.6c0.002,-12.225 -2.735,-29.158 15.02,-33.546c4.263,-1.053 2157.126,0.349 2344.703,0.471c126.663,0.082 133.456,-1 138.713,4.284c6.331,6.363 5.041,7.826 5.093,191.008c0.052,182.444 0.629,2195.587 -0.669,2280.549c-0.247,16.164 1.166,19.934 -15.009,23.912c-1.233,0.303 -378.543,0.103 -741.649,0.163Z" style="fill:#e7e2d8;"/><path d="M887.849,848.903c0.801,0.003 651.919,0.228 707.188,-0.023c20.208,-0.092 26.167,-1.538 26.615,6.711c0.053,0.981 -0.215,526.131 -0.021,561.104c0.489,87.859 -0.006,198.545 -0.083,215.809c-0.039,8.712 -1.181,10.268 -9.915,10.259c-92.763,-0.096 -726.053,0.035 -727.121,-0.063c-8.274,-0.76 -6.414,-5.353 -6.457,-30.119c-0.099,-56.535 0.059,-725.435 -0.091,-753.67c-0.055,-10.39 3.213,-9.468 9.885,-10.009Z" style="fill:#612d33;"/><path d="M927.691,881.056c215.805,-0.02 431.61,-0.041 647.415,-0.061c9.893,-0.014 13.951,-2.135 14.226,7.773c0.18,6.466 0.115,467.372 0.11,508.013c-0.002,16.201 -0.025,177.32 0.093,202.507c0.039,8.358 0.659,11.116 -7.725,11.347c-13.68,0.377 -592.633,0.022 -644.166,-0.01c-16.757,-0.01 -23.623,0.626 -25.729,-2.014c-1.71,-2.145 -1.28,-2.512 -1.274,-102.272c-0.03,-204.742 -0.061,-409.484 -0.091,-614.226c-0.001,-0.741 -0.009,-7.421 1.457,-9.149c2.226,-2.625 11.227,-1.919 15.685,-1.907Z" style="fill:#e7e2d8;"/><path d="M1483.136,961.836c-0.113,392.913 -0.353,392.976 0.165,394.745c3.172,10.823 34.233,-8.635 35.128,20.273c0.054,1.734 -0.053,67.9 -0.222,73.035c-0.653,19.886 -10.703,17.665 -26.119,17.562c-9.304,-0.062 -8.79,3.048 -8.842,12.319c-0.289,52.141 0.6,52.239 -0.65,56.591c-1.135,3.952 -6.405,4.089 -7.058,4.106c-20.08,0.521 -21.198,-0.506 -22.529,-1.728c-2.806,-2.577 -1.426,-3.321 -1.771,-58.965c-0.013,-2.171 0.301,-4.375 -0.081,-6.511c-0.111,-0.617 -0.849,-4.741 -5.622,-5.465c-10.177,-1.545 -29.217,6.978 -29.28,-17.898c-0.178,-70.222 -0.319,-70.226 0.21,-76.307c1.711,-19.659 26.092,-10.877 32.091,-14.127c2.639,-1.43 2.747,-5.361 2.762,-5.88c0.242,-8.79 0.011,-302.366 -0.009,-328.659c-0.055,-69.547 -0.246,-70.125 1.905,-71.955c2.734,-2.326 25.288,-2.258 27.968,0.015c3.013,2.556 1.518,3.242 1.956,8.851Z" style="fill:#612d33;"/><path d="M1316.143,951.25c12.315,-0.045 12.236,-0.071 13.3,-0.049c9.912,0.207 8.169,5.75 8.142,13.997c-0.245,76.342 0.368,76.337 0.142,82.971c-0.323,9.502 -0.228,9.454 -0.228,36.519c-0,12.486 -0.001,154.404 0.038,156.07c0.176,7.562 0.9,9.118 8.479,9.113c17.466,-0.012 27.478,-2.233 27.452,20.753c-0.071,64.194 0.047,64.143 -0.032,69.72c-0.262,18.639 -13.792,16.45 -27.41,16.49c-10.043,0.029 -8.211,4.755 -8.208,13.413c0.003,8.498 0.031,101.266 -0.076,106.22c-1.167,54.325 1.422,59.412 -2.231,62.371c-3.051,2.472 -24.362,1.375 -26.038,0.778c-4.146,-1.477 -3.381,-5.068 -3.436,-36.596c-0.244,-140.401 0.132,-140.449 -0.442,-142.602c-2.808,-10.519 -34.216,7.87 -34.844,-20.121c-0.05,-2.208 -0.079,-68.634 -0,-72.998c0.512,-28.335 30.414,-11.13 34.559,-20.3c0.62,-1.371 0.621,-8.818 0.621,-9.586c-0.014,-60.871 -0.029,-121.743 -0.043,-182.614c0.21,-98.582 -0.672,-99.188 1.651,-101.64c2.366,-2.497 2.881,-1.344 8.604,-1.909Z" style="fill:#612d33;"/><path d="M1193.799,1034.882c-0.028,100.39 -0.145,100.559 0.802,102.199c4.769,8.263 33.865,-9.52 34.26,20.648c0.08,6.096 0.864,66.142 -0.218,76.203c-2.073,19.282 -30.164,8.437 -34.004,14.313c-1.726,2.642 -0.801,3.01 -0.857,155.167c-0.049,132.262 0.441,132.803 -1.626,135.055c-1.2,1.308 -2.142,2.333 -22.122,1.761c-9.758,-0.28 -7.799,-4.209 -7.805,-13.986c-0.127,-204.065 -0.569,-204.038 -0.54,-262.261c0.003,-5.04 0.123,-4.98 0.251,-9.979c0.206,-8.032 -5.048,-7.79 -8.494,-7.779c-14.552,0.046 -26.778,2.68 -26.922,-18.78c-0.039,-5.845 -0.461,-68.455 -0.102,-73.062c1.785,-22.911 27.901,-10.611 33.801,-16.468c1.727,-1.715 1.938,-2.151 1.888,-139.574c-0.015,-42.091 -0.652,-43.666 1.915,-45.68c1.584,-1.242 5.529,-1.33 6.023,-1.341c20.548,-0.456 23.27,-0.364 23.8,7.168c0.086,1.228 -0.07,54.579 -0.048,76.393Z" style="fill:#612d33;"/><path d="M1049.024,1439.936c0.005,7.677 0.061,95.493 -0.111,95.964c-0.177,0.486 -1.274,3.497 -4.921,4.2c-0.897,0.173 -19.701,0.019 -20.057,-0.014c-4.286,-0.405 -6.498,-1.755 -6.75,-7.177c-0.408,-8.789 0.064,-8.791 0.082,-385.145c0,-6.222 0.866,-11.641 -2.375,-14.464c-6.238,-5.433 -33.095,8.93 -33.29,-18.728c-0.043,-6.101 -0.487,-68.988 0.231,-76.265c1.991,-20.164 29.573,-8.498 34.157,-14.441c2.068,-2.681 1.209,-15.523 1.278,-62.028c0.018,-11.936 4.269,-10.458 13.346,-10.514c13.345,-0.083 17.339,-1.138 18.248,7.086c0.122,1.106 0.29,1.105 0.175,49.887c-0.025,10.626 -2.306,17.536 8.137,17.669c9.989,0.127 25.761,-3.047 26.672,15.549c0.273,5.572 0.219,5.569 0.145,69.732c-0.024,20.939 -7.167,20.847 -23.493,20.921c-0.733,0.003 -7.917,0.036 -9.14,0.638c-3.547,1.744 -2.598,9.383 -2.566,54.803c0.078,84.109 0.156,168.218 0.234,252.328Z" style="fill:#612d33;"/></g></g></svg>