<?xml version="1.0" encoding="UTF-8" standalone="no"?><!DOCTYPE svg PUBLIC "-//W3C//DTD SVG 1.1//EN" "http://www.w3.org/Graphics/SVG/1.1/DTD/svg11.dtd"><svg width="100%" height="100%" viewBox="0 0 2500 2492" version="1.1" xmlns="http://www.w3.org/2000/svg" xmlns:xlink="http://www.w3.org/1999/xlink" xml:space="preserve" xmlns:serif="http://www.serif.com/" style="fill-rule:evenodd;clip-rule:evenodd;stroke-linejoin:round;stroke-miterlimit:2;"><rect id="Production" x="0" y="0" width="2500" height="2491.667" style="fill:none;"/><clipPath id="_clip1"><rect x="0" y="0" width="2500" height="2491.667"/></clipPath><g clip-path="url(#_clip1)"><g><path d="M2036.653,-0.295c21.883,0.738 21.842,0.66 118,0.67c327.905,0.034 329.384,-0.869 334.49,4.267c6.309,6.345 5.098,20.007 5.1,85.749c0.056,2383.756 -0.204,2383.845 -1.146,2387.916c-4.041,17.455 -29.002,13.603 -53.28,13.6c-2261.747,-0.271 -2261.736,0.016 -2291.131,-0.642c-126.485,-2.833 -136.845,7.909 -142.761,-14.442c-0.63,-2.381 0.165,-2430.444 0.53,-2453.123c0.259,-16.104 -1.137,-19.844 14.905,-23.824c1.476,-0.366 1761.66,-0.053 2015.294,-0.171Z" style="fill:#e8e2d8;"/><path d="M1096.785,975.257c-0.043,-45.854 0.224,-45.814 0.225,-109.621c0,-11.206 -1.283,-15.384 8.859,-15.401c197.6,-0.329 425.737,0.012 462.758,0.068c36.788,0.055 43.802,-1.206 49.92,6.23c6.531,7.937 4.188,9.427 4.762,97.525c0.159,24.354 -3.683,29.094 -25.764,29.138c-25.195,0.05 -25.187,-0.557 -314.941,-0.056c-35.484,0.061 -179.787,-0.12 -180.013,-0.151c-6.32,-0.871 -5.645,-7.015 -5.806,-7.732Z" style="fill:#612d33;"/><path d="M1096.799,1300.666c0.688,-104.162 -0.233,-104.115 -0.02,-113.166c0.054,-2.279 0.324,-6.852 5.828,-7.551c1.522,-0.193 445.749,-0.178 459.595,-0.136c45.375,0.137 50.524,-1.681 57.396,8.033c4.151,5.868 3.804,6.577 3.578,70.372c-0.148,41.489 3.316,53.97 -25.639,53.982c-39.334,0.016 -460.511,0.191 -491.678,-0.004c-4.358,-0.027 -8.755,-0.083 -9.062,-8.023c-0.045,-1.168 0.047,-2.339 0.002,-3.507Z" style="fill:#612d33;"/><path d="M1096.904,1081.378c-0.009,-14.149 -0.019,-28.298 -0.028,-42.448c-0.003,-11.206 -0.902,-21.565 3.092,-23.07c2.172,-0.819 60.465,-0.233 481.502,-0.545c23.084,-0.017 35.667,-2.571 40.768,13.37c1.877,5.865 0.906,6.069 1.057,88.065c0.049,26.993 -4.487,30.541 -28.968,30.65c-26.737,0.118 -120.346,0.533 -334.213,-0.019c-156.865,-0.405 -157.214,0.713 -161.219,-1.586c-2.683,-1.541 -1.905,-2.647 -1.992,-64.415Z" style="fill:#612d33;"/><path d="M1096.849,1353.718c0.807,-6.219 0.288,-9.08 9.019,-8.795c11.259,0.368 11.185,-0.469 22.482,-0.208c20.274,0.469 416.756,-0.169 472.438,0.257c24.405,0.187 22.678,16.808 22.576,37.034c-0.378,74.941 1.058,80.535 -4.402,87.403c-6.827,8.588 -14.449,7.331 -34.278,7.349c-38.306,0.034 -438.225,0.394 -478.829,0.092c-1.598,-0.012 -8.521,1.018 -8.931,-6.496c-0.508,-9.314 0.081,-9.263 -0.075,-116.637Z" style="fill:#612d33;"/><path d="M1096.943,1629.595c-0.041,-64.088 -0.214,-111.017 -0.111,-113.147c0.026,-0.544 0.226,-4.665 3.041,-5.931c3.459,-1.555 131.162,-0.462 484.815,-0.888c19.832,-0.024 36.939,-2.981 38.625,20.916c0.77,10.916 -0.112,78.095 -0.201,84.885c-0.368,27.998 -14.391,25.927 -31.993,25.933c-161.752,-0.027 -323.504,-0.053 -485.256,-0.08c-5.534,-0.014 -6.774,0.901 -8.755,-4.82c0,0 -0.151,-6.319 -0.164,-6.868Z" style="fill:#612d33;"/><path d="M880.527,858.255c4.599,-5.113 5.794,-7.913 19.65,-7.927c12.596,-0.013 140.809,-0.142 157.455,-0.055c7.282,0.038 9.105,0.313 9.313,8.307c0.224,8.578 0.012,113.363 -0.105,116.678c-0.317,9.001 -6.88,7.864 -12.408,7.859c-38.563,-0.02 -77.126,-0.041 -115.689,-0.061c-48.194,0.019 -48.381,-0.231 -52.153,-2.622c-7.434,-4.711 -9.629,-8.992 -9.768,-22.834c-0.068,-6.792 -0.576,-57.407 -0.236,-84.905c0.116,-9.416 3.48,-13.388 3.939,-14.441Z" style="fill:#612d33;"/><path d="M883.989,1183.761c0.517,-0.242 3.917,-3.594 12.972,-3.839c9.945,-0.269 124.178,-0.086 134.976,-0.068c27.287,0.044 33.2,-1.152 34.651,4.33c1.146,4.328 0.561,4.427 0.435,56.351c-0.163,67.045 0.075,67.341 -1.31,69.461c-2.18,3.338 -3.248,1.95 -133.392,2.189c-33.174,0.061 -45.794,1.751 -51.591,-7.842c-4.85,-8.025 -3.969,-8.742 -3.983,-81.493c-0.005,-28.408 -1.435,-29.974 7.241,-39.088Z" style="fill:#612d33;"/><path d="M881.253,1021.606c4.523,-3.561 4.066,-4.599 9.519,-5.852c3.965,-0.911 153.53,-0.468 166.88,-0.429c1.967,0.006 8.331,-1.105 9.191,5.994c0.19,1.57 0.244,53.502 0.134,74.209c-0.248,46.626 0.632,47.385 -2.306,50.366c-2.32,2.354 -2.893,1.191 -154.861,1.466c-9.39,0.017 -31.408,3.716 -32.997,-19.955c-0.564,-8.393 -0.186,-81.383 -0.149,-88.459c0.067,-13.007 3.462,-15.103 4.589,-17.339Z" style="fill:#612d33;"/><path d="M881.489,1469.826c-2.806,-5.237 -3.506,-4.902 -4.345,-9.922c-1.363,-8.158 -0.462,-84.692 -0.376,-92.056c0.277,-23.57 15.379,-22.931 23.422,-22.945c10.027,-0.018 112.253,-0.196 125.334,-0.186c37.176,0.028 40.238,-0.973 41.194,5.563c0.459,3.137 0.206,107.272 0.183,116.6c-0.022,9.087 -1.806,9.805 -9.239,9.77c-3.085,-0.015 -141.563,0.271 -157.478,0.103c-14.343,-0.152 -15.137,-3.967 -18.696,-6.927Z" style="fill:#612d33;"/><path d="M876.647,1583.611c0.058,-54.288 0.133,-54.296 0.48,-56.686c2.614,-18.015 19.473,-17.15 19.849,-17.168c4.496,-0.213 139.282,-0.133 160.674,-0.066c1.822,0.006 8.784,-1.016 9.224,6.75c0.186,3.278 -0.065,115.39 -0.097,116.661c-0.15,6.064 -0.34,7.277 -5.82,8.087c-2.733,0.404 -115.399,0.099 -125.434,0.071c-41.272,-0.112 -47.066,0.984 -53.344,-5.99c-6.697,-7.438 -5.57,-17.256 -5.532,-51.659Z" style="fill:#612d33;"/><path d="M1126.486,1569.407c0.058,-0.493 -1.306,-9.313 5.102,-10.394c2.277,-0.384 59.109,-0.234 64.249,-0.221c69.863,0.184 70.303,-0.329 72.511,1.795c1.265,1.217 2.592,2.493 1.748,23.034c-0.027,0.647 -0.243,5.914 -3.545,7.09c-3.785,1.348 -134.984,0.625 -135.102,0.599c-3.54,-0.782 -4.612,-3.962 -4.787,-4.481c-0.028,-0.084 -0.086,-13.954 -0.175,-17.422Z" style="fill:#e9e1d8;"/><path d="M1497.922,1558.836c47.296,-0.045 47.654,-0.071 49.607,1.931c1.221,1.251 2.545,2.609 2.04,22.84c-0.095,3.8 -0.51,7.491 -6.618,7.843c-6.678,0.385 -6.655,0.097 -83.589,0.052c-0.666,-0 -6.613,-0.004 -8.091,-2.133c-2.143,-3.087 -1.091,-25.488 -0.714,-26.688c1.509,-4.8 3.932,-3.722 47.364,-3.846Z" style="fill:#e8e1d7;"/><path d="M1289.027,917.752c22.476,-0.067 22.476,-0.072 22.594,-0.061c3.864,0.369 4.066,0.741 5.455,4.744c0.176,0.507 0.192,12.834 0.194,13.95c0.014,10.4 0.466,13.781 -8.957,13.733c-35.998,-0.181 -70.234,-0.019 -73.885,-0.166c-3.722,-0.15 -4.132,0.233 -6.345,-3.031c-0.921,-1.358 -2.011,-24.067 0.81,-27.23c2.144,-2.404 2.685,-1.7 60.134,-1.94Z" style="fill:#e9e1d8;"/><path d="M1137.991,883.404c59.712,-0.009 60.211,-0.193 62.28,2.179c1.719,1.971 1.464,2.146 1.579,4.85c0.013,0.314 0.054,19.304 -0.271,20.999c-1.047,5.466 -3.225,4.546 -47.525,4.341c-18.884,-0.087 -25.211,0.684 -26.741,-3.535c-1.448,-3.991 -0.775,-24.517 -0.621,-24.9c1.982,-4.922 9.109,-3.902 11.299,-3.935Z" style="fill:#e9e2d9;"/><path d="M1137.978,1393.86c49.468,0.161 53.634,-0.099 54.352,0.197c5.07,2.092 4.185,8.909 4.17,12.711c-0.033,8.332 0.894,17.278 -3.253,19.032c-4.127,1.745 -4.292,1.065 -55.257,0.724c-2.097,-0.014 -4.223,0.333 -6.291,-0.055c-3.712,-0.696 -3.941,-1.092 -4.877,-5.134c-0.424,-1.831 -0.401,-11.661 -0.444,-18.13c-0.004,-0.618 -0.038,-5.802 1.524,-7.547c1.166,-1.303 3.441,-1.709 3.765,-1.767c3.181,-0.568 3.176,0.528 6.311,-0.032Z" style="fill:#e9e0d8;"/><path d="M1247.252,1393.883c50.247,0.103 50.248,-0.582 54.576,0.055c0.61,0.09 5.284,0.779 5.555,5.858c0.015,0.288 -0.007,20.565 -0.108,20.972c-1.524,6.139 -2.84,5.577 -8.614,5.78c-4.111,0.144 -4.077,-0.069 -51.416,0.024c-10.715,0.021 -9.236,-4.493 -9.289,-16.274c-0.024,-5.27 -0.9,-11.963 2.251,-15.084c1.847,-1.829 2.139,-0.995 7.046,-1.331Z" style="fill:#e7dbd2;"/><path d="M1372.595,1048.448c54.333,0.021 54.9,-0.356 56.875,2.067c1.55,1.902 1.782,7.331 1.533,20.286c-0.226,11.748 -6.292,9.678 -23.069,9.734c-41.442,0.137 -42.566,0.514 -44.104,-3.126c-0.768,-1.817 -1.661,-23.638 0.451,-26.732c1.967,-2.882 2.588,-1.576 8.314,-2.229Z" style="fill:#eae2d9;"/><path d="M1459.368,1082.434c47.319,-0.22 47.29,-0.284 51.402,-0.251c3.747,0.03 4.231,-0.61 6.587,2.636c0.969,1.335 1.255,1.729 0.891,21.339c-0.013,0.727 -0.126,6.789 -4.015,7.942c-3,0.89 -50.496,0.189 -54.887,0.124c-6.916,-0.102 -8.528,-0.518 -8.714,-8.106c-0.477,-19.49 0.568,-20.628 1.701,-21.864c2.167,-2.362 2.582,-1.348 7.034,-1.821Z" style="fill:#e7ded4;"/><path d="M1334.029,1114.275c-53.34,-0.051 -56.047,1.597 -57.188,-4.751c-0.182,-1.012 -0.642,-21.21 0.491,-24.052c1.109,-2.783 4.868,-3.181 5.354,-3.232c0.252,-0.027 54.955,-0.604 57.433,0.265c2.985,1.048 3.423,5.394 3.48,5.957c0.019,0.189 0.105,19.029 -0.327,21.101c-1.212,5.812 -9.067,4.691 -9.242,4.712Z" style="fill:#ebe3da;"/><path d="M1218.334,1048.537c12.856,0.003 12.786,0.007 25.708,-0.027c0.782,-0.002 7.886,-0.021 9.739,0.847c2.549,1.193 2.769,6.649 2.794,7.281c0.879,21.8 -1.681,22.847 -3.302,23.51c-1.208,0.494 -1.256,0.427 -54.222,0.456c-1.429,0.001 -5.439,0.38 -7.372,-1.479c-1.973,-1.899 -1.998,-1.977 -2.197,-4.824c-0.442,-6.336 -0.106,-16.263 -0.058,-17.676c0.339,-10.031 4.579,-8.001 28.91,-8.088Z" style="fill:#e7ded5;"/><path d="M1483.344,1240.545c0.429,16.143 1.217,21.19 -7.915,21.341c-17.144,0.283 -44.351,-0.064 -48.207,-0.113c-9.415,-0.12 -8.276,-3.881 -8.304,-14.186c-0.006,-2.36 -0.013,-4.72 -0.019,-7.079c-0.022,-7.818 -0.03,-10.758 8.321,-10.874c2.436,-0.034 50.491,-0.221 51.469,-0.008c5.875,1.276 4.603,10.163 4.656,10.919Z" style="fill:#e8ddd4;"/><path d="M1526.643,936.374c0.028,-5.104 -0.996,-16.284 3.298,-17.996c2.91,-1.16 2.952,-0.899 38.686,-0.713c8.788,0.046 12.215,-1.594 12.416,8.111c0.009,0.441 0.015,17.309 -0.008,17.647c-0.04,0.564 -0.348,4.949 -3.108,6.189c-1.25,0.561 -8.556,0.54 -9.301,0.538c-15.57,-0.045 -33.754,0.099 -35.333,0.025c-0.721,-0.034 -6.268,-0.294 -6.647,-6.713c-0.139,-2.358 0.137,-4.73 -0.002,-7.088Z" style="fill:#eae2d9;"/><path d="M1353.309,1229.664c16.324,-0.05 23.018,-1.882 23.441,7.265c0.966,20.873 -0.6,22.308 -1.919,23.517c-1.721,1.577 -5.14,1.666 -21.524,1.561c-0.691,-0.004 -6.824,-0.044 -8.501,-1.697c-2.436,-2.402 -1.792,-14.155 -1.769,-19.783c0.003,-0.755 0.031,-7.52 1.732,-9.239c2.94,-2.97 3.461,-1.357 8.54,-1.624Z" style="fill:#ece2da;"/><path d="M1571.83,1229.605c5.388,0.425 5.896,-0.92 8.342,1.81c1.191,1.33 2.553,2.85 1.5,23.283c-0.426,8.267 -5.966,7.177 -9.837,7.179c-13.811,0.009 -18.224,0.761 -20.738,-2.097c-1.156,-1.314 -2.49,-2.831 -1.696,-22.778c0.366,-9.178 6.589,-7.352 22.429,-7.397Z" style="fill:#eadfd7;"/></g></g></svg>